<svg xmlns="http://www.w3.org/2000/svg" xmlns:xlink="http://www.w3.org/1999/xlink" width="1920" zoomAndPan="magnify" viewBox="0 0 1440 809.999993" height="1080" preserveAspectRatio="xMidYMid meet" version="1.0"><defs><filter x="0%" y="0%" width="100%" height="100%" id="296b64e12a"><feColorMatrix values="0 0 0 0 1 0 0 0 0 1 0 0 0 0 1 0 0 0 1 0" color-interpolation-filters="sRGB"/></filter><clipPath id="4bc1f9e2f9"><path d="M 49.796875 47.261719 L 1390.203125 47.261719 L 1390.203125 762.738281 L 49.796875 762.738281 Z M 49.796875 47.261719 " clip-rule="nonzero"/></clipPath><clipPath id="20e042759a"><path d="M 48.261719 45.730469 L 1391.738281 45.730469 L 1391.738281 48.796875 L 48.261719 48.796875 Z M 1388.671875 48.796875 L 1391.738281 48.796875 L 1391.738281 761.203125 L 1388.671875 761.203125 Z M 48.261719 48.796875 L 51.328125 48.796875 L 51.328125 761.203125 L 48.261719 761.203125 Z M 48.261719 761.203125 L 1391.738281 761.203125 L 1391.738281 764.269531 L 48.261719 764.269531 Z M 48.261719 761.203125 " clip-rule="nonzero"/></clipPath><mask id="911c07b363"><g filter="url(#296b64e12a)"><rect x="-144" width="1728" fill="#000000" y="-80.999999" height="971.999992" fill-opacity="0.5"/></g></mask><clipPath id="e3734c0662"><path d="M 2 2 L 235.761719 2 L 235.761719 154.945312 L 2 154.945312 Z M 2 2 " clip-rule="nonzero"/></clipPath><clipPath id="334347c01a"><rect x="0" width="236" y="0" height="157"/></clipPath><mask id="583626c951"><g filter="url(#296b64e12a)"><rect x="-144" width="1728" fill="#000000" y="-80.999999" height="971.999992" fill-opacity="0.5"/></g></mask><clipPath id="def862f800"><path d="M 0.238281 2.046875 L 234 2.046875 L 234 155 L 0.238281 155 Z M 0.238281 2.046875 " clip-rule="nonzero"/></clipPath><clipPath id="351ca80d61"><rect x="0" width="236" y="0" height="157"/></clipPath></defs><rect x="-144" width="1728" fill="#ffffff" y="-80.999999" height="971.999992" fill-opacity="1"/><rect x="-144" width="1728" fill="#ffffff" y="-80.999999" height="971.999992" fill-opacity="1"/><g clip-path="url(#4bc1f9e2f9)"><path fill="#d9ffcb" d="M 48.261719 45.730469 L 1391.726562 45.730469 L 1391.726562 764.269531 L 48.261719 764.269531 Z M 48.261719 45.730469 " fill-opacity="1" fill-rule="nonzero"/></g><g clip-path="url(#20e042759a)"><path fill="#d9ffcb" d="M 48.261719 45.730469 L 1391.726562 45.730469 L 1391.726562 764.269531 L 48.261719 764.269531 Z M 48.261719 45.730469 " fill-opacity="1" fill-rule="nonzero"/></g><g mask="url(#911c07b363)"><g transform="matrix(1, 0, 0, 1, 1156, 609)"><g clip-path="url(#334347c01a)"><g clip-path="url(#e3734c0662)"><path fill="#7ab6e8" d="M 235.65625 4.464844 L 235.65625 155.023438 L 3.195312 155.023438 C -1.074219 114.976562 36.15625 84.363281 74.597656 87.195312 C 89.707031 88 105.046875 93.136719 119.65625 89.238281 C 135.589844 84.972656 146.871094 70.9375 155.332031 56.792969 C 163.769531 42.621094 170.878906 27.121094 183.261719 16.253906 C 196.96875 4.417969 218.351562 -1.761719 235.65625 4.464844 Z M 235.65625 4.464844 " fill-opacity="1" fill-rule="nonzero"/></g></g></g></g><g mask="url(#583626c951)"><g transform="matrix(1, 0, 0, 1, 48, 44)"><g clip-path="url(#351ca80d61)"><g clip-path="url(#def862f800)"><path fill="#7ab6e8" d="M 0.335938 152.523438 L 0.335938 1.96875 L 232.796875 1.96875 C 237.070312 42.011719 199.839844 72.625 161.394531 69.792969 C 146.285156 68.992188 130.945312 63.855469 116.335938 67.753906 C 100.402344 72.015625 89.121094 86.050781 80.660156 100.199219 C 72.222656 114.367188 65.113281 129.867188 52.730469 140.738281 C 39.023438 152.574219 17.640625 158.75 0.335938 152.523438 Z M 0.335938 152.523438 " fill-opacity="1" fill-rule="nonzero"/></g></g></g></g></svg>