<svg xmlns="http://www.w3.org/2000/svg" xmlns:xlink="http://www.w3.org/1999/xlink" width="500" zoomAndPan="magnify" viewBox="0 0 375 374.999991" height="500" preserveAspectRatio="xMidYMid meet" version="1.0"><defs><g/><clipPath id="b4f84fba72"><path d="M 167 92.238281 L 208 92.238281 L 208 142 L 167 142 Z M 167 92.238281 " clip-rule="nonzero"/></clipPath><clipPath id="9bcd6f4ecc"><path d="M 202 136 L 252.148438 136 L 252.148438 177 L 202 177 Z M 202 136 " clip-rule="nonzero"/></clipPath><clipPath id="ea21599ff0"><path d="M 167 171 L 208 171 L 208 221.238281 L 167 221.238281 Z M 167 171 " clip-rule="nonzero"/></clipPath><clipPath id="a4531c736f"><path d="M 123.148438 136 L 173 136 L 173 177 L 123.148438 177 Z M 123.148438 136 " clip-rule="nonzero"/></clipPath></defs><rect x="-37.5" width="450" fill="#ffffff" y="-37.499999" height="449.999989" fill-opacity="1"/><rect x="-37.5" width="450" fill="#d9ffcb" y="-37.499999" height="449.999989" fill-opacity="1"/><g clip-path="url(#b4f84fba72)"><path fill="#ffcc00" d="M 187.648438 107.644531 C 182.070312 103.277344 175.519531 102.328125 167.757812 105.71875 C 172.644531 106.984375 176.867188 109.199219 180.289062 112.617188 C 177.789062 123.082031 178.390625 132.941406 184.371094 141.707031 C 184.746094 133.34375 185.578125 125.207031 187.648438 117.707031 C 189.71875 125.207031 190.523438 133.34375 190.925781 141.707031 C 196.902344 132.941406 197.507812 123.082031 195.007812 112.617188 C 198.425781 109.199219 202.652344 106.984375 207.539062 105.71875 C 199.777344 102.328125 193.222656 103.277344 187.648438 107.644531 Z M 187.648438 92.238281 C 190.695312 92.238281 193.136719 94.710938 193.136719 97.730469 C 193.136719 100.777344 190.695312 103.21875 187.648438 103.21875 C 184.601562 103.21875 182.15625 100.777344 182.15625 97.730469 C 182.15625 94.710938 184.601562 92.238281 187.648438 92.238281 Z M 187.648438 92.238281 " fill-opacity="1" fill-rule="evenodd"/></g><path fill="#00c1b4" d="M 222.371094 122.019531 C 221.480469 115.003906 217.539062 109.6875 209.636719 106.609375 C 212.222656 110.921875 213.632812 115.492188 213.632812 120.351562 C 204.460938 125.984375 197.9375 133.371094 195.953125 143.804688 C 202.132812 138.144531 208.457031 132.96875 215.242188 129.144531 C 211.390625 135.929688 206.214844 142.253906 200.582031 148.402344 C 211.015625 146.449219 218.402344 139.925781 224.035156 130.753906 C 228.894531 130.753906 233.4375 132.164062 237.777344 134.722656 C 234.699219 126.847656 229.382812 122.910156 222.371094 122.019531 Z M 233.261719 111.125 C 235.390625 113.28125 235.390625 116.757812 233.261719 118.914062 C 231.109375 121.039062 227.628906 121.039062 225.472656 118.914062 C 223.347656 116.757812 223.347656 113.28125 225.472656 111.125 C 227.628906 108.996094 231.109375 108.996094 233.261719 111.125 Z M 233.261719 111.125 " fill-opacity="1" fill-rule="evenodd"/><g clip-path="url(#9bcd6f4ecc)"><path fill="#94c545" d="M 236.742188 156.738281 C 241.082031 151.164062 242.058594 144.609375 238.667969 136.847656 C 237.402344 141.734375 235.1875 145.960938 231.738281 149.382812 C 221.277344 146.878906 211.449219 147.484375 202.679688 153.460938 C 211.042969 153.835938 219.152344 154.671875 226.652344 156.738281 C 219.152344 158.808594 211.042969 159.613281 202.679688 160.015625 C 211.449219 165.996094 221.277344 166.597656 231.738281 164.097656 C 235.1875 167.519531 237.402344 171.742188 238.667969 176.628906 C 242.058594 168.871094 241.082031 162.316406 236.742188 156.738281 Z M 252.148438 156.738281 C 252.148438 159.785156 249.675781 162.230469 246.65625 162.230469 C 243.609375 162.230469 241.140625 159.785156 241.140625 156.738281 C 241.140625 153.691406 243.609375 151.25 246.65625 151.25 C 249.675781 151.25 252.148438 153.691406 252.148438 156.738281 Z M 252.148438 156.738281 " fill-opacity="1" fill-rule="evenodd"/></g><path fill="#ff8812" d="M 222.371094 191.460938 C 229.382812 190.570312 234.699219 186.632812 237.777344 178.726562 C 233.4375 181.316406 228.894531 182.722656 224.035156 182.722656 C 218.402344 173.554688 211.015625 167.03125 200.582031 165.046875 C 206.214844 171.226562 211.390625 177.550781 215.242188 184.332031 C 208.457031 180.480469 202.132812 175.308594 195.953125 169.675781 C 197.9375 180.109375 204.460938 187.496094 213.632812 193.128906 C 213.632812 197.984375 212.222656 202.527344 209.636719 206.867188 C 217.539062 203.792969 221.480469 198.476562 222.371094 191.460938 Z M 233.261719 202.355469 C 231.109375 204.480469 227.628906 204.480469 225.472656 202.355469 C 223.347656 200.199219 223.347656 196.722656 225.472656 194.566406 C 227.628906 192.4375 231.109375 192.4375 233.261719 194.566406 C 235.390625 196.722656 235.390625 200.199219 233.261719 202.355469 Z M 233.261719 202.355469 " fill-opacity="1" fill-rule="evenodd"/><g clip-path="url(#ea21599ff0)"><path fill="#f83b4b" d="M 187.648438 205.832031 C 182.070312 210.171875 175.519531 211.152344 167.757812 207.757812 C 172.644531 206.496094 176.867188 204.28125 180.289062 200.832031 C 177.789062 190.371094 178.390625 180.539062 184.371094 171.773438 C 184.746094 180.136719 185.578125 188.242188 187.648438 195.746094 C 189.71875 188.242188 190.523438 180.136719 190.925781 171.773438 C 196.902344 180.539062 197.507812 190.371094 195.007812 200.832031 C 198.425781 204.28125 202.652344 206.496094 207.539062 207.757812 C 199.777344 211.152344 193.222656 210.171875 187.648438 205.832031 Z M 187.648438 221.238281 C 190.695312 221.238281 193.136719 218.769531 193.136719 215.75 C 193.136719 212.703125 190.695312 210.230469 187.648438 210.230469 C 184.601562 210.230469 182.15625 212.703125 182.15625 215.75 C 182.15625 218.769531 184.601562 221.238281 187.648438 221.238281 Z M 187.648438 221.238281 " fill-opacity="1" fill-rule="evenodd"/></g><path fill="#b64186" d="M 152.925781 191.460938 C 145.914062 190.570312 140.59375 186.632812 137.519531 178.726562 C 141.832031 181.316406 146.402344 182.722656 151.257812 182.722656 C 156.890625 173.554688 164.28125 167.03125 174.714844 165.046875 C 169.050781 171.226562 163.878906 177.550781 160.054688 184.332031 C 166.835938 180.480469 173.160156 175.308594 179.3125 169.675781 C 177.359375 180.109375 170.832031 187.496094 161.664062 193.128906 C 161.664062 197.984375 163.074219 202.527344 165.628906 206.867188 C 157.753906 203.792969 153.816406 198.476562 152.925781 191.460938 Z M 142.03125 202.355469 C 144.1875 204.480469 147.664062 204.480469 149.820312 202.355469 C 151.949219 200.199219 151.949219 196.722656 149.820312 194.566406 C 147.664062 192.4375 144.1875 192.4375 142.03125 194.566406 C 139.90625 196.722656 139.90625 200.199219 142.03125 202.355469 Z M 142.03125 202.355469 " fill-opacity="1" fill-rule="evenodd"/><g clip-path="url(#a4531c736f)"><path fill="#3c64a4" d="M 138.554688 156.738281 C 134.183594 151.164062 133.238281 144.609375 136.628906 136.847656 C 137.894531 141.734375 140.105469 145.960938 143.527344 149.382812 C 153.988281 146.878906 163.847656 147.484375 172.613281 153.460938 C 164.25 153.835938 156.117188 154.671875 148.613281 156.738281 C 156.117188 158.808594 164.25 159.613281 172.613281 160.015625 C 163.847656 165.996094 153.988281 166.597656 143.527344 164.097656 C 140.105469 167.519531 137.894531 171.742188 136.628906 176.628906 C 133.238281 168.871094 134.183594 162.316406 138.554688 156.738281 Z M 123.148438 156.738281 C 123.148438 159.785156 125.621094 162.230469 128.636719 162.230469 C 131.683594 162.230469 134.128906 159.785156 134.128906 156.738281 C 134.128906 153.691406 131.683594 151.25 128.636719 151.25 C 125.621094 151.25 123.148438 153.691406 123.148438 156.738281 Z M 123.148438 156.738281 " fill-opacity="1" fill-rule="evenodd"/></g><path fill="#00abf3" d="M 152.925781 122.019531 C 153.816406 115.003906 157.753906 109.6875 165.628906 106.609375 C 163.074219 110.921875 161.664062 115.492188 161.664062 120.351562 C 170.832031 125.984375 177.359375 133.371094 179.3125 143.804688 C 173.160156 138.144531 166.835938 132.96875 160.054688 129.144531 C 163.878906 135.929688 169.050781 142.253906 174.714844 148.402344 C 164.28125 146.449219 156.890625 139.925781 151.257812 130.753906 C 146.402344 130.753906 141.832031 132.164062 137.519531 134.722656 C 140.59375 126.847656 145.914062 122.910156 152.925781 122.019531 Z M 142.03125 111.125 C 139.90625 113.28125 139.90625 116.757812 142.03125 118.914062 C 144.1875 121.039062 147.664062 121.039062 149.820312 118.914062 C 151.949219 116.757812 151.949219 113.28125 149.820312 111.125 C 147.664062 108.996094 144.1875 108.996094 142.03125 111.125 Z M 142.03125 111.125 " fill-opacity="1" fill-rule="evenodd"/><g fill="#333333" fill-opacity="1"><g transform="translate(105.397922, 251.767527)"><g><path d="M 1.25 -18.4375 L 12.765625 -18.4375 L 12.765625 -14.84375 L 5.203125 -14.84375 L 5.203125 -11.515625 L 11.859375 -11.515625 L 11.859375 -7.9375 L 5.203125 -7.9375 L 5.203125 -3.5625 L 12.765625 -3.5625 L 12.765625 0 L 1.25 0 Z M 1.25 -18.4375 "/></g></g></g><g fill="#333333" fill-opacity="1"><g transform="translate(120.629708, 251.767527)"><g><path d="M 8.890625 -5.921875 L 1.25 -5.921875 L 1.25 -8.375 L 8.890625 -8.375 Z M 8.890625 -5.921875 "/></g></g></g><g fill="#333333" fill-opacity="1"><g transform="translate(131.962665, 251.767527)"><g><path d="M 9.25 -10.015625 L 18.140625 0 L 13.28125 0 L 6.765625 -7.515625 L 5.171875 -5.90625 L 5.171875 0 L 1.21875 0 L 1.21875 -18.4375 L 5.171875 -18.4375 L 5.171875 -10.96875 L 12.578125 -18.4375 L 17.625 -18.4375 Z M 9.25 -10.015625 "/></g></g></g><g fill="#333333" fill-opacity="1"><g transform="translate(151.691107, 251.767527)"><g><path d="M 9.9375 -18.6875 C 11.175781 -18.6875 12.347656 -18.4375 13.453125 -17.9375 C 14.566406 -17.4375 15.535156 -16.753906 16.359375 -15.890625 C 17.191406 -15.023438 17.84375 -14.019531 18.3125 -12.875 C 18.789062 -11.726562 19.03125 -10.503906 19.03125 -9.203125 C 19.03125 -7.921875 18.789062 -6.695312 18.3125 -5.53125 C 17.84375 -4.375 17.191406 -3.363281 16.359375 -2.5 C 15.535156 -1.632812 14.566406 -0.941406 13.453125 -0.421875 C 12.347656 0.0859375 11.175781 0.34375 9.9375 0.34375 C 8.6875 0.34375 7.503906 0.0859375 6.390625 -0.421875 C 5.285156 -0.941406 4.320312 -1.632812 3.5 -2.5 C 2.6875 -3.363281 2.039062 -4.375 1.5625 -5.53125 C 1.09375 -6.695312 0.859375 -7.921875 0.859375 -9.203125 C 0.859375 -10.503906 1.09375 -11.726562 1.5625 -12.875 C 2.039062 -14.019531 2.6875 -15.023438 3.5 -15.890625 C 4.320312 -16.753906 5.285156 -17.4375 6.390625 -17.9375 C 7.503906 -18.4375 8.6875 -18.6875 9.9375 -18.6875 Z M 9.9375 -3.59375 C 10.644531 -3.59375 11.3125 -3.738281 11.9375 -4.03125 C 12.5625 -4.320312 13.109375 -4.722656 13.578125 -5.234375 C 14.046875 -5.742188 14.410156 -6.335938 14.671875 -7.015625 C 14.941406 -7.691406 15.078125 -8.421875 15.078125 -9.203125 C 15.078125 -9.984375 14.941406 -10.710938 14.671875 -11.390625 C 14.410156 -12.078125 14.046875 -12.675781 13.578125 -13.1875 C 13.109375 -13.707031 12.5625 -14.113281 11.9375 -14.40625 C 11.3125 -14.695312 10.644531 -14.84375 9.9375 -14.84375 C 9.21875 -14.84375 8.546875 -14.695312 7.921875 -14.40625 C 7.304688 -14.113281 6.765625 -13.707031 6.296875 -13.1875 C 5.828125 -12.675781 5.457031 -12.078125 5.1875 -11.390625 C 4.914062 -10.710938 4.78125 -9.984375 4.78125 -9.203125 C 4.78125 -8.421875 4.914062 -7.691406 5.1875 -7.015625 C 5.457031 -6.335938 5.828125 -5.742188 6.296875 -5.234375 C 6.765625 -4.722656 7.304688 -4.320312 7.921875 -4.03125 C 8.546875 -3.738281 9.21875 -3.59375 9.9375 -3.59375 Z M 9.9375 -3.59375 "/></g></g></g><g fill="#333333" fill-opacity="1"><g transform="translate(172.797136, 251.767527)"><g><path d="M 17.375 -18.4375 L 21.09375 -18.4375 L 21.09375 0 L 17.15625 0 L 17.15625 -12.171875 L 12.765625 -6 L 9.625 -6 L 5.171875 -11.984375 L 5.171875 0 L 1.21875 0 L 1.21875 -18.4375 L 4.96875 -18.4375 L 11.203125 -9.9375 Z M 17.375 -18.4375 "/></g></g></g><g fill="#333333" fill-opacity="1"><g transform="translate(196.320442, 251.767527)"><g><path d="M 11.640625 -18.4375 L 15.578125 -18.4375 L 15.578125 -6.65625 C 15.578125 -5.738281 15.382812 -4.851562 15 -4 C 14.625 -3.15625 14.101562 -2.410156 13.4375 -1.765625 C 12.78125 -1.128906 12.015625 -0.617188 11.140625 -0.234375 C 10.265625 0.148438 9.320312 0.34375 8.3125 0.34375 C 7.332031 0.34375 6.398438 0.148438 5.515625 -0.234375 C 4.628906 -0.617188 3.859375 -1.128906 3.203125 -1.765625 C 2.554688 -2.410156 2.039062 -3.15625 1.65625 -4 C 1.28125 -4.851562 1.09375 -5.738281 1.09375 -6.65625 L 1.09375 -18.4375 L 5.015625 -18.4375 L 5.015625 -7.4375 C 5.015625 -6.914062 5.097656 -6.425781 5.265625 -5.96875 C 5.441406 -5.507812 5.675781 -5.101562 5.96875 -4.75 C 6.269531 -4.394531 6.625 -4.113281 7.03125 -3.90625 C 7.4375 -3.695312 7.863281 -3.59375 8.3125 -3.59375 C 8.78125 -3.59375 9.210938 -3.695312 9.609375 -3.90625 C 10.015625 -4.113281 10.367188 -4.394531 10.671875 -4.75 C 10.972656 -5.101562 11.207031 -5.507812 11.375 -5.96875 C 11.550781 -6.425781 11.640625 -6.914062 11.640625 -7.4375 Z M 11.640625 -18.4375 "/></g></g></g><g fill="#333333" fill-opacity="1"><g transform="translate(214.177441, 251.767527)"><g><path d="M 13.828125 -18.4375 L 17.765625 -18.4375 L 17.765625 0 L 14.015625 0 L 5.140625 -12.03125 L 5.140625 0 L 1.21875 0 L 1.21875 -18.4375 L 4.90625 -18.4375 L 13.828125 -6.3125 Z M 13.828125 -18.4375 "/></g></g></g><g fill="#333333" fill-opacity="1"><g transform="translate(234.373744, 251.767527)"><g><path d="M 7.9375 -18.4375 L 7.9375 -15.109375 L 6.546875 -15.109375 L 6.546875 -3.296875 L 7.9375 -3.296875 L 7.9375 0 L 1.21875 0 L 1.21875 -3.296875 L 2.59375 -3.296875 L 2.59375 -15.109375 L 1.21875 -15.109375 L 1.21875 -18.4375 Z M 7.9375 -18.4375 "/></g></g></g><g fill="#333333" fill-opacity="1"><g transform="translate(244.718996, 251.767527)"><g><path d="M 0.59375 -18.4375 L 13.9375 -18.4375 L 13.9375 -14.84375 L 9.234375 -14.84375 L 9.234375 0 L 5.296875 0 L 5.296875 -14.84375 L 0.59375 -14.84375 Z M 0.59375 -18.4375 "/></g></g></g><g fill="#333333" fill-opacity="1"><g transform="translate(260.470632, 251.767527)"><g><path d="M 7.9375 -18.4375 L 7.9375 -15.109375 L 6.546875 -15.109375 L 6.546875 -3.296875 L 7.9375 -3.296875 L 7.9375 0 L 1.21875 0 L 1.21875 -3.296875 L 2.59375 -3.296875 L 2.59375 -15.109375 L 1.21875 -15.109375 L 1.21875 -18.4375 Z M 7.9375 -18.4375 "/></g></g></g></svg>